<svg xmlns="http://www.w3.org/2000/svg" xmlns:xlink="http://www.w3.org/1999/xlink" viewBox="0 0 3701.979 611.759" width="3701.978" height="611.759"><defs><linearGradient id="a" gradientUnits="userSpaceOnUse" gradientTransform="scale(215.41 -215.41) rotate(-45 .112 -1.42)"><stop offset="0" stop-color="#c14d9d"/><stop offset="1" stop-color="#da45a4"/></linearGradient><linearGradient id="c" gradientUnits="userSpaceOnUse" xlink:href="#a" gradientTransform="scale(215.41 -215.41) rotate(-45 .112 -1.42)"/><clipPath id="b"><path d="M3752.3 753.38h-13.46v12.73l13.46-.007v-12.72"/></clipPath></defs><text style="line-height:1.25;-inkscape-font-specification:'Roboto, Bold';font-variant-ligatures:normal;font-variant-caps:normal;font-variant-numeric:normal;font-variant-east-asian:normal" x="785.898" y="507.64" font-weight="700" font-size="578.772" font-family="Roboto" fill="#fff" stroke-width="14.469" transform="translate(-60.609 -45.664)"><tspan x="785.898" y="507.64" style="-inkscape-font-specification:'Roboto, Bold';font-variant-ligatures:normal;font-variant-caps:normal;font-variant-numeric:normal;font-variant-east-asian:normal">delfim</tspan></text><text style="line-height:1.25;-inkscape-font-specification:'Roboto, Bold';font-variant-ligatures:normal;font-variant-caps:normal;font-variant-numeric:normal;font-variant-east-asian:normal" x="2584.168" y="509.216" font-weight="700" font-size="578.772" font-family="Roboto" fill="#fff" stroke-width="14.469" transform="translate(-60.609 -45.664)"><tspan x="2584.168" y="509.216" style="-inkscape-font-specification:'Roboto, Bold';font-variant-ligatures:normal;font-variant-caps:normal;font-variant-numeric:normal;font-variant-east-asian:normal">rego</tspan></text><ellipse cx="282.712" cy="291.868" rx="221.676" ry="224.727" fill="#fff" transform="translate(24.191 17.99)"/><g fill="#fff" stroke="#fff"><path d="M351.3 538.656c0 25.45-20.631 46.08-46.08 46.08-25.45 0-46.08-20.63-46.08-46.08s20.63-46.08 46.08-46.08c25.449 0 46.08 20.63 46.08 46.08zm0-465.553c0 25.45-20.631 46.08-46.08 46.08-25.45 0-46.08-20.63-46.08-46.08 0-25.449 20.63-46.08 46.08-46.08 25.449 0 46.08 20.631 46.08 46.08zm232.294 244.515c0 25.449-20.63 46.08-46.08 46.08-25.449 0-46.08-20.631-46.08-46.08 0-25.45 20.631-46.08 46.08-46.08 25.45 0 46.08 20.63 46.08 46.08zm-464.411 0c0 25.449-20.63 46.08-46.08 46.08-25.449 0-46.08-20.631-46.08-46.08 0-25.45 20.631-46.08 46.08-46.08 25.45 0 46.08 20.63 46.08 46.08zm181.41 15.211l-35.157 33.907-.013-.016c-6.285 6.443-13.4 11.323-21.42 11.412-4.038.045-8.585-1.88-11.168-5.588-2.512-3.604-3.31-8.11-3.112-13.443-.43-14.85-17.536-26.509-31.29-20.309l-.372.155-.4.125c-16.663 4.96-20.696 32.203-5.522 40.958.004.004.024-.002.028.002l.029.03c1.113.605 4.144 1.419 7.73 2.023 3.624.611 7.802 1.134 11.848 2.244 4.047 1.11 8.451 2.772 11.256 7.149 2.805 4.377 2.398 10.287-.244 15.957l-.23.48-.301.438c-15.41 21.9-41.434 41.732-59.724 59.944 30.013 27.816 59.09 40.605 86.13 48.917 57.885 18.864 58.114 17.407 113.504.838 39.684-12.484 56.121-23.184 75.339-38.57-14.603-13.942-20.643-28.975-33.833-42.442l-.004.008c-4.397-4.489-8.953-8.598-13.817-12.078-3.09-1.352-3.805-1.008-4.002-.883-.21.135-1.264 1.488-2.049 4.348-.784 2.86-1.327 6.753-1.988 10.674-.66 3.92-1.306 7.877-3.418 11.648l-.03.028c-14.06 24.58-53.963 19.2-62.581-7.239-.114-.25-.189-.504-.295-.755l.014-.014c-9.154-21.75 7.903-46.76 31.183-47.442l.221-.011.22.02c3.957.187 5.945-.587 6.477-.958.532-.37.475-.167.463-1.228-.023-2.123-2.846-8.173-7.898-13.075zM142.906 173.334c-22.84 28.369-36.067 58.593-43.75 89.599-12.135 55.476-12.314 59.187 2.597 108.049 11.176 30.9 22.03 55.674 49.794 86.285 19.466-19.634 47.194-36.72 60.518-55.328 1.351-3.09.991-3.79.865-3.987-.134-.209-1.472-1.28-4.332-2.064s-6.737-1.312-10.658-1.973c-3.92-.66-7.877-1.306-11.648-3.418l-.03-.029-.029-.002c-24.585-14.065-19.187-53.976 7.268-62.582l-.014-.016c21.924-9.882 47.525 7.351 48.21 30.899l-.005.236-.004.234c-.188 3.957.6 5.93.97 6.461.372.533.152.461 1.214.45 2.122-.024 8.188-2.833 13.09-7.885l35.304-34.049-48.619-50.414c-4.819-4.325-7.941-8.655-9.324-13.203-1.42-4.67-.677-9.566 1.592-13.152 4.537-7.173 13.006-9.784 20.838-8.569 2.52.391 8.102-.733 12.662-3.742 4.56-3.01 8.117-7.422 9.015-12.973 1.257-7.766-1.288-15.713-6.982-21.384v-.002c-4.43-4.41-10.76-7.444-18.701-7.944-2.786-.175-8.126 1.011-12.422 4.35-4.296 3.338-7.94 8.515-8.672 17.437-.331 4.031-1.085 7.947-2.813 11.528-1.727 3.58-4.81 7.082-9.271 8.306-4.461 1.225-9.246.034-13.928-2.666-4.645-2.678-9.566-6.935-15.252-13.207l-.129-.135c-12.811-13.284-32.738-30.261-47.354-45.11zm327.757-1.337l-43.943 39.186-.09.056c-5.771 5.217-9.264 9.48-10.995 12.483-1.73 3.002-1.61 4.367-1.5 4.767.11.401.352.888 1.942 1.655 1.59.767 4.28 1.412 7.326 1.662 11.965.982 20.71 6.532 25.932 13.254 5.222 6.722 7.231 14.252 6.836 20.543-1.537 24.438-22.459 40.104-43.196 36.748-9.474-1.534-16.633-7.51-21.074-14.24-4.44-6.73-6.646-14.195-5.576-21.094.516-3.327-1.403-7.79-3.135-8.885-.866-.548-1.506-.78-3.246-.25s-4.58 2.208-8.04 6.137l-.165.187-62.527 60.305 45.43 47.103c6.435 6.281 11.307 13.393 11.396 21.407.044 4.038-1.88 8.613-5.588 11.197-3.6 2.509-8.102 3.293-13.428 3.096-.016.003-.028.014-.045.013-14.828.466-26.473 17.553-20.279 31.293l.17.356.111.385c4.967 16.684 32.255 20.72 40.975 5.478.605-1.104 1.43-4.148 2.037-7.744.611-3.624 1.15-7.785 2.26-11.832 1.11-4.047 2.756-8.467 7.133-11.272 4.377-2.805 10.287-2.368 15.957.274l.48.23.436.301c22.7 15.972 35.121 37.685 53.04 54.943 27.664-24.22 50.964-63.569 61.278-97.338 14.926-52.358 16.305-48.406 5.262-105.232-12.152-46.135-25.663-71.378-45.174-95.172zm-111.42-71.664c-49.748-14.18-53.419-13.797-107.145 1.727-35.75 10.482-69.562 26.924-98.745 59.07 14.49 14.716 32.615 35.6 45.665 49.13l.13.136c5.216 5.77 9.464 9.279 12.466 11.01 3.002 1.73 4.384 1.594 4.785 1.484.401-.11.886-.352 1.653-1.942.767-1.59 1.427-4.265 1.677-7.31.983-11.965 6.533-20.71 13.254-25.932 6.722-5.222 14.224-7.233 20.514-6.838 10.691.673 19.721 5.068 26.2 11.524 8.327 8.3 12.45 20.022 10.562 31.687-1.534 9.474-7.524 16.62-14.254 21.06-6.73 4.442-14.182 6.66-21.08 5.59-3.327-.515-7.774 1.39-8.87 3.122-.547.866-.792 1.52-.263 3.26.529 1.74 2.206 4.58 6.135 8.04l.187.167 48.78 50.578 62.347-60.13c4.33-4.827 8.664-7.953 13.217-9.337 4.67-1.42 9.552-.663 13.138 1.605 7.173 4.538 9.782 13.008 8.567 20.84-.39 2.52.719 8.086 3.728 12.647 3.01 4.56 7.44 8.103 12.99 9.002 13.807 2.235 28.2-7.517 29.342-25.67.176-2.786-1.01-8.126-4.35-12.422-3.337-4.297-8.53-7.924-17.452-8.656-4.031-.331-7.962-1.101-11.541-2.829-3.58-1.727-7.067-4.824-8.291-9.285-1.225-4.46-.034-9.245 2.666-13.927 2.678-4.646 6.95-9.553 13.22-15.239l41.996-41.686c-31.013-31.046-64.253-50.903-101.228-60.476z" stroke-width="16.252"/></g><g transform="translate(-53.196 -45.664)"><g clip-path="url(#b)" transform="matrix(.0832 0 0 -.0832 336.627 473.546)" stroke-width="154.439"><path d="M3752.3 753.38h-13.46v12.73l13.46-.007v-12.72" fill="url(#c)"/></g><path d="M412.439 145.998c-10.27 20.457-31.17 33.367-54.024 33.367-22.154 0-42.534-12.14-53.12-31.64-33.612 10.838-66.929 31.35-99.679 61.355 14.49 14.716 33.548 33.314 46.598 46.845l.129.135c5.217 5.771 9.465 9.279 12.467 11.01 3.002 1.73 4.384 1.594 4.785 1.484.4-.11.885-.351 1.652-1.941.768-1.59 1.428-4.265 1.678-7.31.982-11.965 6.533-20.71 13.254-25.932 6.722-5.223 14.223-7.234 20.514-6.838 10.691.672 19.72 5.067 26.199 11.523 8.328 8.3 12.45 20.023 10.562 31.688-1.533 9.474-7.524 16.62-14.254 21.06-6.73 4.441-14.181 6.66-21.08 5.59-3.326-.516-7.773 1.389-8.869 3.121-.548.866-.793 1.52-.263 3.26.529 1.74 2.206 4.58 6.134 8.04l.188.167 48.78 50.578 62.347-60.129c4.33-4.828 8.664-7.954 13.217-9.338 4.67-1.42 9.552-.663 13.138 1.606 7.173 4.537 9.781 13.008 8.567 20.84-.391 2.52.719 8.086 3.728 12.646 3.01 4.56 7.44 8.104 12.99 9.002 13.807 2.235 28.2-7.517 29.342-25.67.175-2.785-1.011-8.126-4.35-12.422-3.338-4.296-8.53-7.924-17.453-8.656-4.03-.33-7.96-1.101-11.54-2.828-3.58-1.728-7.067-4.824-8.292-9.285-1.224-4.462-.033-9.246 2.666-13.928 2.679-4.646 6.95-9.553 13.221-15.238l43.422-42.578c-34.044-30.333-68.355-49.655-102.654-59.584z" color="#000" fill="#c5026a"/><path d="M523.41 214.9l-43.495 41.947-.09.057c-5.77 5.217-9.263 9.48-10.994 12.482-1.73 3.002-1.61 4.367-1.5 4.768.11.4.352.887 1.942 1.654 1.59.767 4.28 1.412 7.326 1.662 11.964.982 20.71 6.533 25.931 13.254 5.223 6.722 7.232 14.253 6.836 20.543-1.537 24.438-22.458 40.105-43.195 36.748-9.474-1.534-16.633-7.51-21.074-14.24-4.441-6.73-6.646-14.195-5.576-21.094.516-3.327-1.403-7.789-3.135-8.885-.866-.548-1.506-.779-3.246-.25-1.74.53-4.581 2.208-8.041 6.137l-.164.188-62.528 60.304 45.43 47.104c6.436 6.28 11.307 13.392 11.397 21.406.044 4.038-1.88 8.614-5.588 11.197-3.601 2.51-8.102 3.293-13.428 3.096-.017.003-.029.014-.045.014-14.828.465-26.473 17.552-20.28 31.293l.17.355.112.385c4.967 16.684 32.255 20.72 40.975 5.478.605-1.104 1.43-4.147 2.037-7.744.61-3.624 1.15-7.785 2.26-11.832 1.11-4.046 2.756-8.466 7.132-11.271 4.377-2.806 10.288-2.37 15.957.273l.48.23.436.301c22.701 15.972 38.107 41.12 56.026 58.378 28.734-33.672 47.265-67.895 57.58-101.665-20.152-10.383-32.82-31.184-32.82-53.89 0-24.171 14.335-46.03 36.476-55.621-7.468-31.736-22.178-62.802-43.305-92.762z" color="#000" fill="#ff7b02"/><path d="M197.6 218.013c-22.126 29.44-37.565 59.579-45.25 90.584 21.031 10.06 34.421 31.334 34.42 54.686 0 22.3-12.223 42.798-31.822 53.363 9.135 30.409 25.456 60.144 49.016 88.34.084.087.2.121.307.08l.492.508c19.466-19.634 47.174-39.363 60.498-57.97 1.35-3.09.99-3.79.865-3.987-.134-.21-1.472-1.28-4.332-2.065-2.86-.784-6.737-1.311-10.658-1.972-3.92-.661-7.877-1.306-11.648-3.418l-.03-.03-.03-.002c-24.585-14.065-19.186-53.976 7.269-62.582l-.014-.015c21.924-9.883 47.525 7.35 48.209 30.898l-.004.236-.004.235c-.188 3.956.6 5.928.97 6.46.372.533.152.462 1.213.45 2.123-.023 8.189-2.832 13.09-7.885l35.305-34.049-48.62-50.414c-4.818-4.325-7.94-8.654-9.323-13.203-1.42-4.67-.677-9.566 1.591-13.152 4.538-7.172 13.006-9.783 20.838-8.568 2.52.39 8.102-.734 12.662-3.743 4.56-3.009 8.118-7.421 9.016-12.972 1.257-7.766-1.288-15.714-6.982-21.385v-.002c-4.43-4.41-10.76-7.444-18.702-7.943-2.785-.176-8.125 1.01-12.421 4.35-4.297 3.337-7.94 8.514-8.672 17.437-.331 4.03-1.085 7.947-2.813 11.527-1.727 3.58-4.81 7.083-9.271 8.307-4.462 1.224-9.246.033-13.928-2.666-4.646-2.679-9.566-6.936-15.252-13.207l-.129-.135c-12.812-13.285-31.238-31.247-45.855-46.096z" color="#000" fill="#0492d2"/><path d="M353.788 378.494L318.632 412.4l-.014-.016c-6.284 6.444-13.4 11.323-21.42 11.412-4.038.045-8.584-1.88-11.168-5.587-2.511-3.605-3.31-8.11-3.11-13.444-.432-14.85-17.537-26.508-31.292-20.308l-.371.154-.4.125c-16.663 4.96-20.696 32.203-5.522 40.959.004.004.024-.002.027.002l.03.03c1.112.604 4.144 1.418 7.73 2.023 3.624.61 7.801 1.134 11.848 2.244 4.047 1.11 8.45 2.772 11.256 7.148 2.805 4.377 2.398 10.287-.244 15.957l-.23.48-.302.438c-15.408 21.9-44.149 42.122-62.44 60.334l1.849 1.916c27.86 22.28 57.223 37.714 86.998 46.611a60.472 60.596 0 0156.558-39.154 60.472 60.596 0 0157.48 41.776c28.093-7.134 55.27-20.04 80.551-38.46-14.603-13.94-26.39-30.868-39.58-44.335l-.004.008c-4.396-4.49-8.952-8.6-13.816-12.078-3.091-1.352-3.806-1.01-4.002-.883-.21.134-1.264 1.488-2.049 4.347-.784 2.86-1.327 6.753-1.988 10.674-.661 3.921-1.306 7.878-3.418 11.649l-.03.027c-14.06 24.58-53.963 19.2-62.581-7.238-.114-.251-.189-.504-.295-.756l.013-.014c-9.153-21.75 7.904-46.76 31.184-47.441l.22-.012.221.02c3.957.188 5.944-.586 6.477-.957.532-.371.475-.168.463-1.229-.024-2.123-2.846-8.172-7.899-13.074z" color="#000" fill="#6d9908"/><circle cx="126.299" cy="363.282" r="46.08" fill="#0492d2"/><circle cx="590.71" cy="363.282" r="46.08" fill="#ff7b02"/><circle cx="358.415" cy="118.768" r="46.08" fill="#c5026a"/><circle cx="358.415" cy="584.32" r="46.08" fill="#6d9908"/></g></svg>